<?xml version="1.0" encoding="UTF-8" standalone="no"?>
<!-- Created with Inkscape (http://www.inkscape.org/) -->

<svg
   xmlns:dc="http://purl.org/dc/elements/1.1/"
   xmlns:cc="http://creativecommons.org/ns#"
   xmlns:rdf="http://www.w3.org/1999/02/22-rdf-syntax-ns#"
   xmlns:svg="http://www.w3.org/2000/svg"
   xmlns="http://www.w3.org/2000/svg"
   xmlns:sodipodi="http://sodipodi.sourceforge.net/DTD/sodipodi-0.dtd"
   xmlns:inkscape="http://www.inkscape.org/namespaces/inkscape"
   version="1.1"
   id="svg10"
   xml:space="preserve"
   width="1248"
   height="480"
   viewBox="0 0 1248 480"
   sodipodi:docname="Myriad_2 infographic_RGB.svg"
   inkscape:version="0.92.2 (5c3e80d, 2017-08-06)"><metadata
     id="metadata16"><rdf:RDF><cc:Work
         rdf:about=""><dc:format>image/svg+xml</dc:format><dc:type
           rdf:resource="http://purl.org/dc/dcmitype/StillImage" /><dc:title></dc:title></cc:Work></rdf:RDF></metadata><defs
     id="defs14"><clipPath
       clipPathUnits="userSpaceOnUse"
       id="clipPath26"><path
         d="m 214.15,80.64 h 706 v 216 h -706 z"
         id="path24"
         inkscape:connector-curvature="0" /></clipPath><clipPath
       clipPathUnits="userSpaceOnUse"
       id="clipPath34"><path
         d="m 214.149,296.64 h 706 V 80.6406 h -706 z"
         id="path32"
         inkscape:connector-curvature="0" /></clipPath><clipPath
       clipPathUnits="userSpaceOnUse"
       id="clipPath54"><path
         d="m 214.15,80.64 h 706 v 216 h -706 z"
         id="path52"
         inkscape:connector-curvature="0" /></clipPath><clipPath
       clipPathUnits="userSpaceOnUse"
       id="clipPath62"><path
         d="M 240.115,187.31 H 355.149 V 105.254 H 240.115 Z"
         id="path60"
         inkscape:connector-curvature="0" /></clipPath><clipPath
       clipPathUnits="userSpaceOnUse"
       id="clipPath82"><path
         d="m 214.15,80.64 h 706 v 216 h -706 z"
         id="path80"
         inkscape:connector-curvature="0" /></clipPath><clipPath
       clipPathUnits="userSpaceOnUse"
       id="clipPath90"><path
         d="m 680.149,188.64 h 114 v -82 h -114 z"
         id="path88"
         inkscape:connector-curvature="0" /></clipPath><clipPath
       clipPathUnits="userSpaceOnUse"
       id="clipPath110"><path
         d="m 214.15,80.64 h 706 v 216 h -706 z"
         id="path108"
         inkscape:connector-curvature="0" /></clipPath><clipPath
       clipPathUnits="userSpaceOnUse"
       id="clipPath118"><path
         d="m 779.149,188.64 h 97 v -71 h -97 z"
         id="path116"
         inkscape:connector-curvature="0" /></clipPath><clipPath
       clipPathUnits="userSpaceOnUse"
       id="clipPath138"><path
         d="m 214.15,80.64 h 706 v 216 h -706 z"
         id="path136"
         inkscape:connector-curvature="0" /></clipPath><clipPath
       clipPathUnits="userSpaceOnUse"
       id="clipPath146"><path
         d="m 545.149,188.64 h 152 V 80.6396 h -152 z"
         id="path144"
         inkscape:connector-curvature="0" /></clipPath><clipPath
       clipPathUnits="userSpaceOnUse"
       id="clipPath162"><path
         d="m 236.149,216.64 h 684 v -30 h -684 z"
         id="path160"
         inkscape:connector-curvature="0" /></clipPath><clipPath
       clipPathUnits="userSpaceOnUse"
       id="clipPath176"><path
         d="M 0,0 H 936 V 360 H 0 Z"
         id="path174"
         inkscape:connector-curvature="0" /></clipPath><clipPath
       clipPathUnits="userSpaceOnUse"
       id="clipPath192"><path
         d="M 0,0 H 936 V 360 H 0 Z"
         id="path190"
         inkscape:connector-curvature="0" /></clipPath><clipPath
       clipPathUnits="userSpaceOnUse"
       id="clipPath222"><path
         d="m 83.516,209.513 c 0,-2.774 2.25,-5.022 5.022,-5.022 v 0 c 2.773,0 5.022,2.248 5.022,5.022 v 0 c 0,2.773 -2.249,5.021 -5.022,5.021 v 0 c -2.772,0 -5.022,-2.248 -5.022,-5.021"
         id="path220"
         inkscape:connector-curvature="0" /></clipPath><clipPath
       clipPathUnits="userSpaceOnUse"
       id="clipPath232"><path
         d="m 108.625,173.357 c 0,-1.664 1.349,-3.013 3.013,-3.013 v 0 c 1.663,0 3.012,1.349 3.012,3.013 v 0 c 0,1.664 -1.349,3.012 -3.012,3.012 v 0 c -1.664,0 -3.013,-1.348 -3.013,-3.012"
         id="path230"
         inkscape:connector-curvature="0" /></clipPath><clipPath
       clipPathUnits="userSpaceOnUse"
       id="clipPath242"><path
         d="m 77.49,247.675 c 0,-1.662 1.349,-3.011 3.013,-3.011 v 0 c 1.664,0 3.013,1.349 3.013,3.011 v 0 c 0,1.665 -1.349,3.015 -3.013,3.015 v 0 c -1.664,0 -3.013,-1.35 -3.013,-3.015"
         id="path240"
         inkscape:connector-curvature="0" /></clipPath><clipPath
       clipPathUnits="userSpaceOnUse"
       id="clipPath252"><path
         d="m 141.766,239.642 c 0,-1.664 1.349,-3.013 3.013,-3.013 v 0 c 1.664,0 3.015,1.349 3.015,3.013 v 0 c 0,1.664 -1.351,3.012 -3.015,3.012 v 0 c -1.664,0 -3.013,-1.348 -3.013,-3.012"
         id="path250"
         inkscape:connector-curvature="0" /></clipPath><clipPath
       clipPathUnits="userSpaceOnUse"
       id="clipPath262"><path
         d="m 115.654,217.547 c 0,-2.773 2.25,-5.021 5.022,-5.021 v 0 c 2.774,0 5.023,2.248 5.023,5.021 v 0 c 0,2.774 -2.249,5.022 -5.023,5.022 v 0 c -2.772,0 -5.022,-2.248 -5.022,-5.022"
         id="path260"
         inkscape:connector-curvature="0" /></clipPath><clipPath
       clipPathUnits="userSpaceOnUse"
       id="clipPath272"><path
         d="m 107.619,259.727 c 0,-2.772 2.249,-5.02 5.022,-5.02 v 0 c 2.773,0 5.022,2.248 5.022,5.02 v 0 c 0,2.775 -2.249,5.022 -5.022,5.022 v 0 c -2.773,0 -5.022,-2.247 -5.022,-5.022"
         id="path270"
         inkscape:connector-curvature="0" /></clipPath><clipPath
       clipPathUnits="userSpaceOnUse"
       id="clipPath282"><path
         d="m 69.457,221.565 c 0,-3.883 3.146,-7.031 7.029,-7.031 v 0 c 3.882,0 7.03,3.148 7.03,7.031 v 0 c 0,3.883 -3.148,7.031 -7.03,7.031 v 0 c -3.883,0 -7.029,-3.148 -7.029,-7.031"
         id="path280"
         inkscape:connector-curvature="0" /></clipPath><clipPath
       clipPathUnits="userSpaceOnUse"
       id="clipPath292"><path
         d="m 119.671,248.681 c 0,-5.547 4.498,-10.042 10.043,-10.042 v 0 c 5.547,0 10.043,4.495 10.043,10.042 v 0 c 0,5.546 -4.496,10.043 -10.043,10.043 v 0 c -5.545,0 -10.043,-4.497 -10.043,-10.043"
         id="path290"
         inkscape:connector-curvature="0" /></clipPath><clipPath
       clipPathUnits="userSpaceOnUse"
       id="clipPath310"><path
         d="m 85.524,236.629 c 0,-7.765 6.297,-14.06 14.061,-14.06 v 0 c 7.765,0 14.062,6.295 14.062,14.06 v 0 c 0,7.766 -6.297,14.061 -14.062,14.061 v 0 c -7.764,0 -14.061,-6.295 -14.061,-14.061"
         id="path308"
         inkscape:connector-curvature="0" /></clipPath><clipPath
       clipPathUnits="userSpaceOnUse"
       id="clipPath320"><path
         d="m 128.509,229.599 c 0,-3.884 3.148,-7.03 7.031,-7.03 v 0 c 3.883,0 7.031,3.146 7.031,7.03 v 0 c 0,3.883 -3.148,7.03 -7.031,7.03 v 0 c -3.883,0 -7.031,-3.147 -7.031,-7.03"
         id="path318"
         inkscape:connector-curvature="0" /></clipPath><clipPath
       clipPathUnits="userSpaceOnUse"
       id="clipPath330"><path
         d="M 0,0 H 936 V 360 H 0 Z"
         id="path328"
         inkscape:connector-curvature="0" /></clipPath></defs><sodipodi:namedview
     pagecolor="#ffffff"
     bordercolor="#666666"
     borderopacity="1"
     objecttolerance="10"
     gridtolerance="10"
     guidetolerance="10"
     inkscape:pageopacity="0"
     inkscape:pageshadow="2"
     inkscape:window-width="3840"
     inkscape:window-height="2066"
     id="namedview12"
     showgrid="false"
     inkscape:zoom="2.9415064"
     inkscape:cx="624"
     inkscape:cy="240"
     inkscape:window-x="2869"
     inkscape:window-y="1609"
     inkscape:window-maximized="1"
     inkscape:current-layer="g18" /><g
     id="g18"
     inkscape:groupmode="layer"
     inkscape:label="Myriad_2 infographic_RGB"
     transform="matrix(1.3333333,0,0,-1.3333333,0,480)"><g
       id="g20"><g
         id="g22"
         clip-path="url(#clipPath26)"><g
           id="g28"><g
             id="g30" /><g
             id="g38"><g
               clip-path="url(#clipPath34)"
               id="g36"
               style="opacity:0" /></g></g></g></g><g
       id="g40"
       transform="translate(780.1494,254.6411)"><path
         d="M 0,0 28.053,-67.987 H 96 L 67.947,0 Z M 28.053,-68.013 0,-136 H 67.947 L 96,-68.013 Z"
         style="fill:#6cbde9;fill-opacity:1;fill-rule:nonzero;stroke:none"
         id="path42"
         inkscape:connector-curvature="0" /></g><g
       id="g44"
       transform="translate(239.9932,268.1699)"><path
         d="M 0,0 33.606,-81.485 H 115 L 81.394,0 Z M 33.606,-81.515 0,-163 H 81.394 L 115,-81.515 Z"
         style="fill:#3e6d3e;fill-opacity:1;fill-rule:nonzero;stroke:none"
         id="path46"
         inkscape:connector-curvature="0" /></g><g
       id="g48"><g
         id="g50"
         clip-path="url(#clipPath54)"><g
           id="g56"><g
             id="g58" /><g
             id="g70"><g
               clip-path="url(#clipPath62)"
               id="g68"
               style="opacity:0.25100702"><g
                 transform="translate(273.4601,186.6393)"
                 id="g66"><path
                   d="m 0,0 -33.311,-81.154 v -0.084 h 81.36 L 80.989,0 Z"
                   style="fill:#3e6d3e;fill-opacity:1;fill-rule:nonzero;stroke:none"
                   id="path64"
                   inkscape:connector-curvature="0" /></g></g></g></g></g></g><g
       id="g72"
       transform="translate(679.5244,268.2651)"><path
         d="M 0,0 33.313,-81.485 H 114 L 80.687,0 Z M 33.313,-81.515 0.625,-161.625 H 81.312 L 114,-81.515 Z"
         style="fill:#a6a9a8;fill-opacity:1;fill-rule:nonzero;stroke:none"
         id="path74"
         inkscape:connector-curvature="0" /></g><g
       id="g76"><g
         id="g78"
         clip-path="url(#clipPath82)"><g
           id="g84"><g
             id="g86" /><g
             id="g98"><g
               clip-path="url(#clipPath90)"
               id="g96"
               style="opacity:0.25100702"><g
                 transform="translate(712.875,186.625)"
                 id="g94"><path
                   d="M 0,0 -32.726,-79.984 H 47.961 L 80.5,-0.11 Z"
                   style="fill:#000000;fill-opacity:1;fill-rule:nonzero;stroke:none"
                   id="path92"
                   inkscape:connector-curvature="0" /></g></g></g></g></g></g><g
       id="g100"
       transform="translate(436.1494,283.6401)"><path
         d="M 0,0 39.45,-96.982 H 135 L 95.55,0 Z M 39.45,-97.018 0,-194 H 95.55 L 135,-97.018 Z"
         style="fill:#6cbde9;fill-opacity:1;fill-rule:nonzero;stroke:none"
         id="path102"
         inkscape:connector-curvature="0" /></g><g
       id="g104"><g
         id="g106"
         clip-path="url(#clipPath110)"><g
           id="g112"><g
             id="g114" /><g
             id="g126"><g
               clip-path="url(#clipPath118)"
               id="g124"
               style="opacity:0.25100702"><g
                 transform="translate(808.2021,186.6279)"
                 id="g122"><path
                   d="M 0,0 -28.053,-67.986 H 39.895 L 67.881,0.004 Z"
                   style="fill:#000000;fill-opacity:1;fill-rule:nonzero;stroke:none"
                   id="path120"
                   inkscape:connector-curvature="0" /></g></g></g></g></g></g><g
       id="g128"
       transform="translate(544.1484,294.6382)"><path
         d="M 0,0 44.418,-107.98 H 151.999 L 107.581,0 Z m 44.418,-108.02 -43.417,-105.978 107.59,-0.001 43.408,105.979 z"
         style="fill:#599dbd;fill-opacity:1;fill-rule:nonzero;stroke:none"
         id="path130"
         inkscape:connector-curvature="0" /></g><g
       id="g132"><g
         id="g134"
         clip-path="url(#clipPath138)"><g
           id="g140"><g
             id="g142" /><g
             id="g154"><g
               clip-path="url(#clipPath146)"
               id="g152"
               style="opacity:0.25100702"><g
                 transform="translate(588.8701,186.6709)"
                 id="g150"><path
                   d="m 0,0 -43.721,-106.029 v -0.002 H 63.869 L 107.501,0 Z"
                   style="fill:#252e57;fill-opacity:1;fill-rule:nonzero;stroke:none"
                   id="path148"
                   inkscape:connector-curvature="0" /></g></g></g></g><g
           id="g156"><g
             id="g158" /><g
             id="g168"><g
               clip-path="url(#clipPath162)"
               id="g166"
               style="opacity:0.89019799"><path
                 d="m 236.149,186.64 h 684 v 30 h -684 z"
                 style="fill:#ffffff;fill-opacity:1;fill-rule:nonzero;stroke:none"
                 id="path164"
                 inkscape:connector-curvature="0" /></g></g></g></g></g><g
       id="g170"><g
         id="g172"
         clip-path="url(#clipPath176)"><text
           transform="matrix(1,0,0,-1,263.105,197.022)"
           style="font-variant:normal;font-weight:600;font-stretch:normal;font-size:15px;font-family:'Myriad Pro';-inkscape-font-specification:OpenSans-Semibold;writing-mode:lr-tb;fill:#000000;fill-opacity:1;fill-rule:nonzero;stroke:none"
           id="text182"><tspan
             x="0 8.0100002 14.01 23.01 26.385 31.02 40.02 46.035 50.025002 58.035 67.050003 72.059998 78.059998 90.074997 99.074997 105.09"
             y="0"
             sodipodi:role="line"
             id="tspan178">Stellar Software</tspan><tspan
             x="220.815 229.815 233.83501 242.82001 251.625 262.82999 266.83499 276.84"
             y="-0.13500001"
             sodipodi:role="line"
             id="tspan180">Planning</tspan></text>
</g></g><path
       d="m 236.149,215.64 h 684 v 31.999 h -684 z"
       style="fill:#ffffff;fill-opacity:1;fill-rule:nonzero;stroke:none"
       id="path184"
       inkscape:connector-curvature="0" /><g
       id="g186"><g
         id="g188"
         clip-path="url(#clipPath192)"><text
           transform="matrix(1,0,0,-1,586.9922,197.9995)"
           style="font-variant:normal;font-weight:600;font-stretch:normal;font-size:15px;font-family:'Myriad Pro';-inkscape-font-specification:OpenSans-Semibold;writing-mode:lr-tb;fill:#000000;fill-opacity:1;fill-rule:nonzero;stroke:none"
           id="text200"><tspan
             x="0 11.01 20.01 29.025 33.029999 42.044998 50.055 64.065002 73.065002 83.055"
             y="0"
             sodipodi:role="line"
             id="tspan194">Deployment</tspan><tspan
             x="131.39999 138.405 147.39 154.395 160.38 164.38499 174.375"
             y="0.73500001"
             sodipodi:role="line"
             id="tspan196">Testing</tspan><tspan
             x="212.655 226.64999 235.66499 245.655 249.66 255.66 264.67499 270.69 274.69501 284.685"
             y="0.85500002"
             sodipodi:role="line"
             id="tspan198">Monitoring</tspan></text>
<text
           transform="matrix(1,0,0,-1,251.2759,220.9136)"
           style="font-variant:normal;font-weight:300;font-stretch:normal;font-size:28px;font-family:'Open Sans Light';-inkscape-font-specification:OpenSans-Light;writing-mode:lr-tb;fill:#6cbde9;fill-opacity:1;fill-rule:nonzero;stroke:none"
           id="text206"><tspan
             x="0 14.028 30.044001 47.040001"
             y="0"
             sodipodi:role="line"
             id="tspan202">You </tspan><tspan
             x="292.73999 316.17599 328.29999 338.436 344.008 358.12 374.02399 380.57599 395.108 400.67999 424.67599 440.57999 446.15201"
             y="0"
             sodipodi:role="line"
             id="tspan204">Myriad Simpli</tspan></text>
<text
           transform="matrix(1,0,0,-1,702.9999,220.9136)"
           style="font-variant:normal;font-weight:300;font-stretch:normal;font-size:28px;font-family:'Open Sans Light';-inkscape-font-specification:OpenSans-Light;writing-mode:lr-tb;fill:#6cbde9;fill-opacity:1;fill-rule:nonzero;stroke:none"
           id="text210"><tspan
             x="0 14"
             y="0"
             sodipodi:role="line"
             id="tspan208">ﬁe</tspan></text>
<text
           transform="matrix(1,0,0,-1,731.6439,220.9136)"
           style="font-variant:normal;font-weight:300;font-stretch:normal;font-size:28px;font-family:'Open Sans Light';-inkscape-font-specification:OpenSans-Light;writing-mode:lr-tb;fill:#6cbde9;fill-opacity:1;fill-rule:nonzero;stroke:none"
           id="text214"><tspan
             x="0"
             y="0"
             id="tspan212">s</tspan></text>
</g></g><g
       id="g216"><g
         id="g218"
         clip-path="url(#clipPath222)"><path
           d="m 73.473,224.578 h 30.13 v -30.13 h -30.13 z"
           style="fill:#79b752;fill-opacity:1;fill-rule:nonzero;stroke:none"
           id="path224"
           inkscape:connector-curvature="0" /></g></g><g
       id="g226"><g
         id="g228"
         clip-path="url(#clipPath232)"><path
           d="m 98.581,186.414 h 26.112 V 160.302 H 98.581 Z"
           style="fill:#000000;fill-opacity:1;fill-rule:nonzero;stroke:none"
           id="path234"
           inkscape:connector-curvature="0" /></g></g><g
       id="g236"><g
         id="g238"
         clip-path="url(#clipPath242)"><path
           d="M 67.447,260.733 H 93.559 V 234.621 H 67.447 Z"
           style="fill:#3e6d3e;fill-opacity:1;fill-rule:nonzero;stroke:none"
           id="path244"
           inkscape:connector-curvature="0" /></g></g><g
       id="g246"><g
         id="g248"
         clip-path="url(#clipPath252)"><path
           d="m 131.723,252.698 h 26.112 v -26.112 h -26.112 z"
           style="fill:#3e6d3e;fill-opacity:1;fill-rule:nonzero;stroke:none"
           id="path254"
           inkscape:connector-curvature="0" /></g></g><g
       id="g256"><g
         id="g258"
         clip-path="url(#clipPath262)"><path
           d="m 105.611,232.612 h 30.13 v -30.13 h -30.13 z"
           style="fill:#3e6d3e;fill-opacity:1;fill-rule:nonzero;stroke:none"
           id="path264"
           inkscape:connector-curvature="0" /></g></g><g
       id="g266"><g
         id="g268"
         clip-path="url(#clipPath272)"><path
           d="m 97.577,274.793 h 30.13 v -30.13 h -30.13 z"
           style="fill:#79b752;fill-opacity:1;fill-rule:nonzero;stroke:none"
           id="path274"
           inkscape:connector-curvature="0" /></g></g><g
       id="g276"><g
         id="g278"
         clip-path="url(#clipPath282)"><path
           d="M 59.412,238.638 H 93.559 V 204.491 H 59.412 Z"
           style="fill:#3e6d3e;fill-opacity:1;fill-rule:nonzero;stroke:none"
           id="path284"
           inkscape:connector-curvature="0" /></g></g><g
       id="g286"><g
         id="g288"
         clip-path="url(#clipPath292)"><path
           d="m 109.628,268.768 h 40.173 v -40.173 h -40.173 z"
           style="fill:#3e6d3e;fill-opacity:1;fill-rule:nonzero;stroke:none"
           id="path294"
           inkscape:connector-curvature="0" /></g></g><g
       id="g296"
       transform="translate(99.5854,220.5601)"><path
         d="M 0,0 V -9.651 L 12.052,-21.033 V -38.164 -48.207"
         style="fill:none;stroke:#000000;stroke-width:5.92500019;stroke-linecap:butt;stroke-linejoin:miter;stroke-miterlimit:10;stroke-dasharray:none;stroke-opacity:1"
         id="path298"
         inkscape:connector-curvature="0" /></g><g
       id="g300"
       transform="translate(135.7412,218.5513)"><path
         d="M 0,0 V 2.361 -9.688 l -13.106,-12.207 -10.998,-10.243"
         style="fill:none;stroke:#000000;stroke-width:6.02600002;stroke-linecap:butt;stroke-linejoin:miter;stroke-miterlimit:10;stroke-dasharray:none;stroke-opacity:1"
         id="path302"
         inkscape:connector-curvature="0" /></g><g
       id="g304"><g
         id="g306"
         clip-path="url(#clipPath310)"><path
           d="m 75.482,260.733 h 48.207 V 212.526 H 75.482 Z"
           style="fill:#79b752;fill-opacity:1;fill-rule:nonzero;stroke:none"
           id="path312"
           inkscape:connector-curvature="0" /></g></g><g
       id="g314"><g
         id="g316"
         clip-path="url(#clipPath320)"><path
           d="m 118.466,246.673 h 34.147 v -34.147 h -34.147 z"
           style="fill:#79b752;fill-opacity:1;fill-rule:nonzero;stroke:none"
           id="path322"
           inkscape:connector-curvature="0" /></g></g><g
       id="g324"><g
         id="g326"
         clip-path="url(#clipPath330)"><text
           transform="matrix(1,0,0,-1,49.1968,128.2207)"
           style="font-variant:normal;font-weight:bold;font-stretch:normal;font-size:36px;font-family:'Open Sans';-inkscape-font-specification:OpenSans-Bold;writing-mode:lr-tb;fill:#272525;fill-opacity:1;fill-rule:nonzero;stroke:none"
           id="text334"><tspan
             x="0 33.948002 54.431999 70.776001 81.755997 103.5"
             y="0"
             sodipodi:role="line"
             id="tspan332">Myriad</tspan></text>
<text
           transform="matrix(1,0,0,-1,306.2056,221.2334)"
           style="font-variant:normal;font-weight:300;font-stretch:normal;font-size:28px;font-family:'Open Sans Light';-inkscape-font-specification:OpenSans-Light;writing-mode:lr-tb;fill:#3d6539;fill-opacity:1;fill-rule:nonzero;stroke:none"
           id="text338"><tspan
             x="0 16.379999 27.271999 43.68 56.532001 62.860001 79.519997"
             y="0"
             sodipodi:role="line"
             id="tspan336">Provide</tspan></text>
</g></g></g></svg>